<svg xmlns="http://www.w3.org/2000/svg" width="96" height="96" viewBox="0 0 96 96" role="img" aria-label="Pulse">
  <defs>
    <linearGradient id="pulseMark" x1="0" y1="0" x2="96" y2="96" gradientUnits="userSpaceOnUse">
      <stop stop-color="#6c5ce7"/>
      <stop offset="1" stop-color="#8b7cf6"/>
    </linearGradient>
  </defs>

  <!-- 30% corner radius, per the design system's clearspace note. -->
  <rect width="96" height="96" rx="28.8" fill="url(#pulseMark)"/>

  <g transform="translate(24 24) scale(2)">
    <path
      d="M12 3C7.03 3 3 6.58 3 11c0 2.39 1.19 4.53 3.08 6.02-.1.98-.42 2.28-1.18 3.48-.1.16.03.36.22.33 1.94-.28 3.36-1.05 4.24-1.65.86.22 1.77.32 2.64.32 4.97 0 9-3.58 9-8s-4.03-8-9-8z"
      fill="#fff"/>
  </g>
</svg>
